<svg width="0" height="0" class="hidden">
  <symbol xmlns="http://www.w3.org/2000/svg" viewBox="0 0 472.6 472.6" id="avatar-1">
    <path d="M417.3 453.2c-22-45.7-61.6-81.6-109.6-99.7v-28.9c23.6-1.3 68.1-7.3 94.2-34 3.3-3.4 4.6-8.3 3.4-12.9s-4.8-8.2-9.4-9.5c-.4-.1-34.8-11.9-27.9-82.3 3-30 2.5-57-1.4-80.2-4.5-26.6-13.5-47.5-26.6-62.1-14.2-15.7-32.7-23.7-55-23.7h-2.6C273.9 12.5 255.3 0 226.8 0c-13.3 0-27.2 2.7-41.4 8.2l-.6.2c-11.2 4.2-32 12.1-49.6 35.5-20.5 27.2-30.3 67.5-29.1 119.7 1.2 52.3-7.4 77.9-14.8 90.2-6.1 10.1-11.9 12.1-13.4 12.5-5.1-.4-9.2 2.2-11.8 6.6-2.7 4.5-1.7 10.2 1.3 14.6 1.2 1.8 8.2 11.2 25.1 20.3 19.3 10.4 43.4 16.3 71.9 17.5v27.5C117 370.8 77.6 407 55.3 453.3c-2 4.2-1.7 9.1.7 13 2.5 3.9 6.8 6.3 11.4 6.3h337.8c4.6 0 9-2.4 11.4-6.3 2.4-4 2.7-8.9.7-13.1zm-326.9-7.7c21.6-33.2 54-58.3 91.5-70.4 5.6-1.8 9.4-7 9.4-12.8V312c0-3.6-1.4-7.1-4-9.6s-6-4-9.6-3.9c-38.9.4-62.4-8.5-75.2-16.1.9-.9 1.9-1.8 2.9-2.8 19.7-20.5 29-59.7 27.7-116.6-2.6-105.1 42.1-122.1 61.1-129.3l.6-.2c11.2-4.2 21.9-6.4 31.8-6.4 25.8 0 39 14.2 40.1 15.5 2.8 3.5 7.1 5.2 11.6 4.8 2.2-.2 4.4-.3 6.5-.3 14.5 0 26 4.8 35 14.8 19 21 26.8 65.3 21.2 121.5-5.6 56.7 12.1 85.1 27.4 98.9-20.6 11.4-49.9 15.7-72 15.7h-2c-3.6-.1-7.2 1.3-9.8 3.8-2.6 2.5-4.1 6-4.1 9.7v51.7c0 5.9 3.8 11 9.4 12.8 38 12.3 70.5 37.1 92 69.7H90.4v-.2z"></path>
  </symbol>
  <symbol xmlns="http://www.w3.org/2000/svg" viewBox="0 0 482.9 482.9" id="avatar">
    <path d="M239.7 260.2h3.2c29.3-.5 53-10.8 70.5-30.5 38.5-43.4 32.1-117.8 31.4-124.9-2.5-53.3-27.7-78.8-48.5-90.7C280.8 5.2 262.7.4 242.5 0h-1.7c-11.1 0-32.9 1.8-53.8 13.7-21 11.9-46.6 37.4-49.1 91.1-.7 7.1-7.1 81.5 31.4 124.9 17.4 19.7 41.1 30 70.4 30.5zm-75.1-152.9c0-.3.1-.6.1-.8 3.3-71.7 54.2-79.4 76-79.4h1.2c27 .6 72.9 11.6 76 79.4 0 .3 0 .6.1.8.1.7 7.1 68.7-24.7 104.5-12.6 14.2-29.4 21.2-51.5 21.4h-1c-22-.2-38.9-7.2-51.4-21.4-31.7-35.6-24.9-103.9-24.8-104.5z"></path>
    <path d="M446.8 383.6v-.3c0-.8-.1-1.6-.1-2.5-.6-19.8-1.9-66.1-45.3-80.9-.3-.1-.7-.2-1-.3-45.1-11.5-82.6-37.5-83-37.8-6.1-4.3-14.5-2.8-18.8 3.3-4.3 6.1-2.8 14.5 3.3 18.8 1.7 1.2 41.5 28.9 91.3 41.7 23.3 8.3 25.9 33.2 26.6 56 0 .9 0 1.7.1 2.5.1 9-.5 22.9-2.1 30.9-16.2 9.2-79.7 41-176.3 41-96.2 0-160.1-31.9-176.4-41.1-1.6-8-2.3-21.9-2.1-30.9 0-.8.1-1.6.1-2.5.7-22.8 3.3-47.7 26.6-56 49.8-12.8 89.6-40.6 91.3-41.7 6.1-4.3 7.6-12.7 3.3-18.8-4.3-6.1-12.7-7.6-18.8-3.3-.4.3-37.7 26.3-83 37.8-.4.1-.7.2-1 .3-43.4 14.9-44.7 61.2-45.3 80.9 0 .9 0 1.7-.1 2.5v.3c-.1 5.2-.2 31.9 5.1 45.3 1 2.6 2.8 4.8 5.2 6.3 3 2 74.9 47.8 195.2 47.8s192.2-45.9 195.2-47.8c2.3-1.5 4.2-3.7 5.2-6.3 5-13.3 4.9-40 4.8-45.2z"></path>
  </symbol>
  <symbol xmlns="http://www.w3.org/2000/svg" viewBox="0 0 477.175 477.175" id="back">
    <path d="M145.188 238.575l215.5-215.5c5.3-5.3 5.3-13.8 0-19.1s-13.8-5.3-19.1 0l-225.1 225.1c-5.3 5.3-5.3 13.8 0 19.1l225.1 225c2.6 2.6 6.1 4 9.5 4s6.9-1.3 9.5-4c5.3-5.3 5.3-13.8 0-19.1l-215.4-215.5z"></path>
  </symbol>
  <symbol xmlns="http://www.w3.org/2000/svg" viewBox="0 0 485.5 485.5" id="book">
    <path d="M422.1 126.2H126.4c-27.4 0-49.8-22.3-49.8-49.8 0-27.4 22.3-49.8 49.8-49.8h295.8c7.4 0 13.3-6 13.3-13.3 0-7.4-6-13.3-13.3-13.3H126.4C84.3 0 50 34.3 50 76.4v332.7c0 42.1 34.3 76.4 76.4 76.4h295.8c7.4 0 13.3-6 13.3-13.3V139.5c-.1-7.3-6-13.3-13.4-13.3zm-13.3 332.7H126.4c-27.4 0-49.8-22.3-49.8-49.8V134.4c13.4 11.5 30.8 18.5 49.8 18.5h282.4v306z"></path>
    <path d="M130.6 64.3c-7.4 0-13.3 6-13.3 13.3s6 13.3 13.3 13.3h249.8c7.4 0 13.3-6 13.3-13.3s-6-13.3-13.3-13.3H130.6zm46.8 336.4c1.5.5 3 .8 4.5.8 5.5 0 10.6-3.4 12.5-8.8l16.2-45.3H273c.5 0 1.1 0 1.6-.1l16.2 45.4c1.9 5.4 7.1 8.8 12.5 8.8 1.5 0 3-.3 4.5-.8 6.9-2.5 10.5-10.1 8-17l-60.6-169.9c-.1-.4-.3-.8-.5-1.2l-.3-.6-.3-.6c-.1-.2-.3-.4-.4-.7-.1-.1-.2-.3-.3-.4-.1-.2-.3-.4-.5-.6-.1-.1-.2-.3-.4-.4-.1-.2-.3-.3-.5-.5l-.5-.5c-.1-.1-.3-.2-.4-.4-.2-.2-.4-.3-.6-.5-.1-.1-.3-.2-.4-.3-.2-.1-.4-.3-.6-.4l-.6-.3-.6-.3c-.4-.2-.8-.4-1.2-.5h-.1l-1.2-.3c-.2 0-.3-.1-.5-.1-.3-.1-.5-.1-.8-.2-.2 0-.4 0-.6-.1-.2 0-.5-.1-.7-.1h-1.3c-.2 0-.5 0-.7.1-.2 0-.4 0-.6.1-.3 0-.5.1-.8.2-.2 0-.3.1-.5.1-.4.1-.8.2-1.1.3h-.1c-.4.1-.8.3-1.2.5l-.6.3-.6.3c-.2.1-.4.3-.7.4-.1.1-.3.2-.4.3-.2.2-.4.3-.6.5-.1.1-.3.2-.4.4l-.5.5-.5.5c-.1.1-.2.3-.4.4-.2.2-.3.4-.5.6-.1.1-.2.3-.3.4-.1.2-.3.4-.4.6l-.3.6-.3.6c-.2.4-.4.8-.5 1.2l-60.8 169.9c-2.2 7 1.4 14.6 8.3 17.1zm65.3-142.9l22.5 63h-45.1l22.6-63z"></path>
  </symbol>
  <symbol xmlns="http://www.w3.org/2000/svg" viewBox="0 0 475.2 475.2" id="cancel">
    <path d="M405.6 69.6C360.7 24.7 301.1 0 237.6 0s-123.1 24.7-168 69.6S0 174.1 0 237.6s24.7 123.1 69.6 168 104.5 69.6 168 69.6 123.1-24.7 168-69.6 69.6-104.5 69.6-168-24.7-123.1-69.6-168zm-19.1 316.9c-39.8 39.8-92.7 61.7-148.9 61.7s-109.1-21.9-148.9-61.7c-82.1-82.1-82.1-215.7 0-297.8C128.5 48.9 181.4 27 237.6 27s109.1 21.9 148.9 61.7c82.1 82.1 82.1 215.7 0 297.8z"></path>
    <path d="M342.3 132.9c-5.3-5.3-13.8-5.3-19.1 0l-85.6 85.6-85.6-85.6c-5.3-5.3-13.8-5.3-19.1 0-5.3 5.3-5.3 13.8 0 19.1l85.6 85.6-85.6 85.6c-5.3 5.3-5.3 13.8 0 19.1 2.6 2.6 6.1 4 9.5 4s6.9-1.3 9.5-4l85.6-85.6 85.6 85.6c2.6 2.6 6.1 4 9.5 4 3.5 0 6.9-1.3 9.5-4 5.3-5.3 5.3-13.8 0-19.1l-85.4-85.6 85.6-85.6c5.3-5.3 5.3-13.8 0-19.1z"></path>
  </symbol>
  <symbol xmlns="http://www.w3.org/2000/svg" viewBox="0 0 477.6 477.6" id="chat-1">
    <path d="M407.583 70c-45.1-45.1-105-70-168.8-70s-123.7 24.9-168.8 70c-87 87-93.3 226-15.8 320.2-10.7 21.9-23.3 36.5-37.6 43.5-8.7 4.3-13.6 13.7-12.2 23.3 1.5 9.7 8.9 17.2 18.6 18.7 5.3.8 11 1.3 16.9 1.3 29.3 0 60.1-10.1 85.8-27.8 34.6 18.6 73.5 28.4 113.1 28.4 63.8 0 123.7-24.8 168.8-69.9s69.9-105.1 69.9-168.8-24.8-123.8-69.9-168.9zm-19.1 318.5c-40 40-93.2 62-149.7 62-37.8 0-74.9-10.1-107.2-29.1-2.1-1.2-4.5-1.9-6.8-1.9-2.9 0-5.9 1-8.3 2.8-30.6 23.7-61.4 27.2-74.9 27.5 16.1-12 29.6-30.6 40.9-56.5 2.1-4.8 1.2-10.4-2.3-14.4-74-83.6-70.1-211 8.9-290 40-40 93.2-62 149.7-62s109.7 22 149.7 62c82.6 82.7 82.6 217.1 0 299.6z"></path>
    <path d="M338.783 160h-200c-7.5 0-13.5 6-13.5 13.5s6 13.5 13.5 13.5h200c7.5 0 13.5-6 13.5-13.5s-6.1-13.5-13.5-13.5zm0 65.3h-200c-7.5 0-13.5 6-13.5 13.5s6 13.5 13.5 13.5h200c7.5 0 13.5-6 13.5-13.5s-6.1-13.5-13.5-13.5zm0 65.3h-200c-7.5 0-13.5 6-13.5 13.5s6 13.5 13.5 13.5h200c7.5 0 13.5-6 13.5-13.5s-6.1-13.5-13.5-13.5z"></path>
  </symbol>
  <symbol xmlns="http://www.w3.org/2000/svg" viewBox="0 0 473 473" id="chat-2">
    <path d="M403.581 69.3c-44.7-44.7-104-69.3-167.2-69.3s-122.5 24.6-167.2 69.3c-86.4 86.4-92.4 224.7-14.9 318-7.6 15.3-19.8 33.1-37.9 42-8.7 4.3-13.6 13.6-12.1 23.2s8.9 17.1 18.5 18.6c4.5.7 10.9 1.4 18.7 1.4 20.9 0 51.7-4.9 83.2-27.6 35.1 18.9 73.5 28.1 111.6 28.1 61.2 0 121.8-23.7 167.4-69.3 44.7-44.7 69.3-104 69.3-167.2s-24.7-122.5-69.4-167.2zm-19.1 315.3c-67.5 67.5-172 80.9-254.2 32.6-5.4-3.2-12.1-2.2-16.4 2.1-.4.2-.8.5-1.1.8-27.1 21-53.7 25.4-71.3 25.4h-.1c20.3-14.8 33.1-36.8 40.6-53.9 1.2-2.9 1.4-5.9.7-8.7-.3-2.7-1.4-5.4-3.3-7.6-73.2-82.7-69.4-208.7 8.8-286.9 81.7-81.7 214.6-81.7 296.2 0 81.8 81.7 81.8 214.5.1 296.2z"></path>
    <circle cx="236.381" cy="236.5" r="16.6"></circle>
    <circle cx="321.981" cy="236.5" r="16.6"></circle>
    <circle cx="150.781" cy="236.5" r="16.6"></circle>
  </symbol>
  <symbol xmlns="http://www.w3.org/2000/svg" viewBox="0 0 477.5 477.5" id="chat">
    <path d="M407.533 70c-45.1-45.1-105-70-168.8-70s-123.7 24.8-168.8 69.9c-87 87-93.3 226-15.8 320.2-10.7 21.9-23.4 36.5-37.6 43.5-8.7 4.3-13.6 13.7-12.2 23.3 1.5 9.7 8.9 17.2 18.6 18.7 5.3.8 11 1.3 16.9 1.3 29.3 0 60.1-10.1 85.8-27.8 34.6 18.6 73.5 28.4 113.1 28.4 63.8 0 123.7-24.8 168.8-69.9s69.9-105.1 69.9-168.8-24.8-123.7-69.9-168.8zm-19.1 318.5c-40 40-93.2 62-149.7 62-37.8 0-74.9-10.1-107.2-29.1-2.1-1.2-4.5-1.9-6.8-1.9-2.9 0-5.9 1-8.3 2.8-30.6 23.7-61.4 27.2-74.9 27.5 16.1-12 29.6-30.6 40.9-56.5 2.1-4.8 1.2-10.4-2.3-14.4-74-83.6-70.1-211 8.9-290 40-40 93.2-62 149.7-62 56.6 0 109.7 22 149.7 62 82.6 82.7 82.6 217.1 0 299.6z"></path>
    <path d="M299.333 129.4c-21.6 0-41.9 8.4-57.2 23.7l-3.4 3.4-3.4-3.4c-15.3-15.3-35.6-23.7-57.2-23.7-21.5 0-41.8 8.4-57 23.6-15.3 15.3-23.7 35.6-23.6 57.1 0 21.6 8.5 41.8 23.7 57.1l107.9 107.9c2.6 2.6 6.1 4 9.5 4s6.9-1.3 9.5-3.9l108.2-107.8c15.3-15.3 23.7-35.6 23.7-57.1 0-21.6-8.4-41.9-23.6-57.2-15.3-15.3-35.6-23.7-57.1-23.7zm37.9 118.9l-98.6 98.2-98.4-98.4c-10.2-10.2-15.8-23.7-15.8-38.1 0-14.4 5.6-27.9 15.7-38 10.1-10.1 23.6-15.7 38-15.7s27.9 5.6 38.1 15.8l13 13c5.3 5.3 13.8 5.3 19.1 0l12.9-12.9c10.2-10.2 23.7-15.8 38.1-15.8 14.3 0 27.8 5.6 38 15.8s15.8 23.7 15.7 38c0 14.4-5.6 27.9-15.8 38.1z"></path>
  </symbol>
  <symbol xmlns="http://www.w3.org/2000/svg" viewBox="0 0 488.3 488.3" id="copy">
    <path d="M314.25 85.4h-227c-21.3 0-38.6 17.3-38.6 38.6v325.7c0 21.3 17.3 38.6 38.6 38.6h227c21.3 0 38.6-17.3 38.6-38.6V124c-.1-21.3-17.4-38.6-38.6-38.6zm11.5 364.2c0 6.4-5.2 11.6-11.6 11.6h-227c-6.4 0-11.6-5.2-11.6-11.6V124c0-6.4 5.2-11.6 11.6-11.6h227c6.4 0 11.6 5.2 11.6 11.6v325.6z"></path>
    <path d="M401.05 0h-227c-21.3 0-38.6 17.3-38.6 38.6 0 7.5 6 13.5 13.5 13.5s13.5-6 13.5-13.5c0-6.4 5.2-11.6 11.6-11.6h227c6.4 0 11.6 5.2 11.6 11.6v325.7c0 6.4-5.2 11.6-11.6 11.6-7.5 0-13.5 6-13.5 13.5s6 13.5 13.5 13.5c21.3 0 38.6-17.3 38.6-38.6V38.6c0-21.3-17.3-38.6-38.6-38.6z"></path>
  </symbol>
  <symbol xmlns="http://www.w3.org/2000/svg" viewBox="0 0 478.174 478.174" id="dislike">
    <path d="M457.525 153.074c1.9-5.1 3.7-12 4.2-20 .7-14.1-2.8-33.9-22.7-51.9 1.3-9.2 1.3-23.8-6.8-38.3-10.7-19.2-31.6-32.2-62.2-38.7-20.5-4.4-47.4-5.3-80-2.8-65.7-1.3-129.7 6.8-133.3 7.3l-23.5 2.8c-6.8-4.8-15.1-7.6-24-7.6h-61c-23 0-41.6 18.7-41.6 41.6v162.5c0 23 18.7 41.6 41.6 41.6h61c7.2 0 13.9-1.8 19.8-5 4.2 9.2 10.4 19.7 19.6 29.4.5.5 1 1 1.6 1.4 31.4 24.1 68.4 110.9 81.5 146.3-1.3 11-2.6 34.8 8.4 47.7 4.9 5.7 11.7 8.8 19.3 8.8 7.7 0 34.3-1.8 50.9-24.7 15.7-21.8 16.6-54.4 2.6-97-11.8-35.8-12.9-51.7-12.5-58.1 5.4 1.2 10.7 2.3 15.8 3.2h.1c.9.2 22.9 5.1 49.2 6.3 37.4 1.8 64.5-4.7 80.3-19.2 21.8-19.9 19.2-45.3 12.7-61.5 5.6-7.3 12.4-19.2 13-34.4.4-13.8-4.2-27.1-14-39.7zm-348.3 69.6h-61c-8.1 0-14.6-6.6-14.6-14.6v-162.5c0-8.1 6.6-14.6 14.6-14.6h61c8.1 0 14.6 6.6 14.6 14.6v162.5c0 8.1-6.5 14.6-14.6 14.6zm321.7 9.7c0 .1 3.5 5.6 4.7 13.1 1.5 9.3-1.1 17-8.1 23.4-19.1 17.4-74.1 13.4-104.8 6.6-.4-.1-.8-.2-1.3-.3-5.5-1-11.4-2.2-17.4-3.5-6.4-2.3-15.2-2-21.8 3.9-13.3 11.8-11.8 38.6 4.9 89.5 11 33.4 11.4 58.6 1.2 72.7-8.6 11.9-22.8 13.4-28.2 13.5-2.4-4-3.1-17.7-1.3-29 .3-2.2.1-4.5-.6-6.7-1.9-5.1-45.8-125.3-90.7-160.9-11.7-12.7-16.8-27.6-18.6-34.3 1.2-3.9 1.9-8.1 1.9-12.4v-162.4c0-3-.3-6-.9-8.8l10.1-1.2h.1c.6-.1 65.7-8.5 130-7.1h1.4c30.3-2.4 54.8-1.7 72.9 2.2 22.4 4.8 37.2 13.2 44 25.1 7.1 12.3 3.2 25 2.9 26.2-2.1 5.6-.2 11.7 4.6 15.3 29.6 22.2 16 48.1 14.2 51.3-3.3 5.2-2.5 11.8 1.8 16.3 8.6 9 12.8 18 12.5 26.8-.4 13.1-10.5 22.9-11.2 23.5-5 4.3-5.9 11.6-2.3 17.2z"></path>
  </symbol>
  <symbol xmlns="http://www.w3.org/2000/svg" viewBox="0 0 471.2 471.2" id="download-1">
    <path d="M457.7 230.15c-7.5 0-13.5 6-13.5 13.5v122.8c0 33.4-27.2 60.5-60.5 60.5H87.5c-33.4 0-60.5-27.2-60.5-60.5v-124.8c0-7.5-6-13.5-13.5-13.5s-13.5 6-13.5 13.5v124.8c0 48.3 39.3 87.5 87.5 87.5h296.2c48.3 0 87.5-39.3 87.5-87.5v-122.8c0-7.4-6-13.5-13.5-13.5z"></path>
    <path d="M226.1 346.75c2.6 2.6 6.1 4 9.5 4s6.9-1.3 9.5-4l85.8-85.8c5.3-5.3 5.3-13.8 0-19.1-5.3-5.3-13.8-5.3-19.1 0l-62.7 62.8V30.75c0-7.5-6-13.5-13.5-13.5s-13.5 6-13.5 13.5v273.9l-62.8-62.8c-5.3-5.3-13.8-5.3-19.1 0-5.3 5.3-5.3 13.8 0 19.1l85.9 85.8z"></path>
  </symbol>
  <symbol xmlns="http://www.w3.org/2000/svg" viewBox="0 0 479 479" id="download">
    <path d="M158.4 196.8c-5.3 5.3-5.3 13.8 0 19.1l71.6 71.6c2.6 2.6 6.1 4 9.5 4s6.9-1.3 9.5-4l71.6-71.6c5.3-5.3 5.3-13.8 0-19.1s-13.8-5.3-19.1 0L253 245.3V13.5C253 6 247 0 239.5 0S226 6 226 13.5v231.8l-48.5-48.5c-5.3-5.3-13.9-5.3-19.1 0z"></path>
    <path d="M460.2 307.4l-47-170c-1.1-3.9-3.8-7-7.4-8.7l-1.3-.6c-1.8-.8-3.7-1.2-5.6-1.2h-84.7c-7.5 0-13.5 6-13.5 13.5s6 13.5 13.5 13.5h75.6l39.7 143.8h-105c-7.5 0-13.5 6-13.5 13.5v12.2c0 17.9-14.5 32.4-32.4 32.4h-82.4c-17.9 0-32.4-14.5-32.4-32.4v-12.2c0-7.5-6-13.5-13.5-13.5H49.4l39.9-144.1h75.6c7.5 0 13.5-6 13.5-13.5s-6-13.5-13.5-13.5H80.1c-1.9 0-3.8.4-5.6 1.2l-1.3.6c-3.6 1.7-6.4 4.8-7.4 8.7l-47 170c-.3 1.2-.5 2.4-.5 3.6v70.9c0 53.7 43.7 97.4 97.4 97.4h247.6c53.7 0 97.4-43.7 97.4-97.4V311c0-1.3-.1-2.5-.5-3.6zm-26.5 74.2c0 38.8-31.6 70.4-70.4 70.4H115.7c-38.8 0-70.4-31.6-70.4-70.4v-56.9H137c.7 32.1 27.1 58 59.4 58h82.4c32.3 0 58.7-25.9 59.4-58h95.7v56.9h-.2z"></path>
  </symbol>
  <symbol xmlns="http://www.w3.org/2000/svg" viewBox="0 0 469.331 469.331" id="edit">
    <path d="M438.931 30.403c-40.4-40.5-106.1-40.5-146.5 0l-268.6 268.5c-2.1 2.1-3.4 4.8-3.8 7.7l-19.9 147.4c-.6 4.2.9 8.4 3.8 11.3 2.5 2.5 6 4 9.5 4 .6 0 1.2 0 1.8-.1l88.8-12c7.4-1 12.6-7.8 11.6-15.2-1-7.4-7.8-12.6-15.2-11.6l-71.2 9.6 13.9-102.8 108.2 108.2c2.5 2.5 6 4 9.5 4s7-1.4 9.5-4l268.6-268.5c19.6-19.6 30.4-45.6 30.4-73.3s-10.8-53.7-30.4-73.2zm-141.3 33l45.1 45.1-245.1 245.1-45.1-45.1 245.1-245.1zm-136.7 353.4l-44.1-44.1 245.1-245.1 44.1 44.1-245.1 245.1zm263.9-264.4l-107.9-107.9c13.7-11.3 30.8-17.5 48.8-17.5 20.5 0 39.7 8 54.2 22.4s22.4 33.7 22.4 54.2c0 18.1-6.2 35.1-17.5 48.8z"></path>
  </symbol>
  <symbol xmlns="http://www.w3.org/2000/svg" viewBox="0 0 483.3 483.3" id="envelope">
    <path d="M424.3 57.75H59.1c-32.6 0-59.1 26.5-59.1 59.1v249.6c0 32.6 26.5 59.1 59.1 59.1h365.1c32.6 0 59.1-26.5 59.1-59.1v-249.5c.1-32.6-26.4-59.2-59-59.2zm32.1 308.7c0 17.7-14.4 32.1-32.1 32.1H59.1c-17.7 0-32.1-14.4-32.1-32.1v-249.5c0-17.7 14.4-32.1 32.1-32.1h365.1c17.7 0 32.1 14.4 32.1 32.1v249.5h.1z"></path>
    <path d="M304.8 238.55l118.2-106c5.5-5 6-13.5 1-19.1-5-5.5-13.5-6-19.1-1l-163 146.3-31.8-28.4c-.1-.1-.2-.2-.2-.3-.7-.7-1.4-1.3-2.2-1.9L78.3 112.35c-5.6-5-14.1-4.5-19.1 1.1-5 5.6-4.5 14.1 1.1 19.1l119.6 106.9-119.1 111.5c-5.4 5.1-5.7 13.6-.6 19.1 2.7 2.8 6.3 4.3 9.9 4.3 3.3 0 6.6-1.2 9.2-3.6l120.9-113.1 32.8 29.3c2.6 2.3 5.8 3.4 9 3.4s6.5-1.2 9-3.5l33.7-30.2 120.2 114.2c2.6 2.5 6 3.7 9.3 3.7 3.6 0 7.1-1.4 9.8-4.2 5.1-5.4 4.9-14-.5-19.1l-118.7-112.7z"></path>
  </symbol>
  <symbol xmlns="http://www.w3.org/2000/svg" viewBox="0 0 481.2 481.2" id="folder">
    <path d="M403.9 97.85h-114c-27.7 0-50.3-22.5-50.3-50.3 0-7.5-6-13.5-13.5-13.5H77.3c-42.6 0-77.3 34.7-77.3 77.3v258.5c0 42.6 34.7 77.3 77.3 77.3h326.6c42.6 0 77.3-34.7 77.3-77.3v-194.8c0-42.6-34.7-77.2-77.3-77.2zm50.3 271.9c0 27.7-22.5 50.3-50.3 50.3H77.3c-27.7 0-50.3-22.5-50.3-50.3v-258.4c0-27.7 22.5-50.3 50.3-50.3h136.5c6.4 36.2 38.1 63.8 76.1 63.8h114c27.7 0 50.3 22.5 50.3 50.3v194.6z"></path>
  </symbol>
  <symbol xmlns="http://www.w3.org/2000/svg" viewBox="0 0 486.4 486.4" id="garbage">
    <path d="M446 70H344.8V53.5c0-29.5-24-53.5-53.5-53.5h-96.2c-29.5 0-53.5 24-53.5 53.5V70H40.4c-7.5 0-13.5 6-13.5 13.5S32.9 97 40.4 97h24.4v317.2c0 39.8 32.4 72.2 72.2 72.2h212.4c39.8 0 72.2-32.4 72.2-72.2V97H446c7.5 0 13.5-6 13.5-13.5S453.5 70 446 70zM168.6 53.5c0-14.6 11.9-26.5 26.5-26.5h96.2c14.6 0 26.5 11.9 26.5 26.5V70H168.6V53.5zm226 360.7c0 24.9-20.3 45.2-45.2 45.2H137c-24.9 0-45.2-20.3-45.2-45.2V97h302.9v317.2h-.1z"></path>
    <path d="M243.2 411c7.5 0 13.5-6 13.5-13.5V158.9c0-7.5-6-13.5-13.5-13.5s-13.5 6-13.5 13.5v238.5c0 7.5 6 13.6 13.5 13.6zm-88.1-14.9c7.5 0 13.5-6 13.5-13.5V173.7c0-7.5-6-13.5-13.5-13.5s-13.5 6-13.5 13.5v208.9c0 7.5 6.1 13.5 13.5 13.5zm176.2 0c7.5 0 13.5-6 13.5-13.5V173.7c0-7.5-6-13.5-13.5-13.5s-13.5 6-13.5 13.5v208.9c0 7.5 6 13.5 13.5 13.5z"></path>
  </symbol>
  <symbol xmlns="http://www.w3.org/2000/svg" viewBox="0 0 487.803 487.803" id="glasses">
    <path d="M480.6 296.133L416 91.033c-9.1-29.9-40.9-46.8-70.8-37.7-7.1 2.2-11.2 9.7-9 16.8s9.7 11.2 16.8 9c15.7-4.8 32.3 4.1 37.1 19.8v.1l46.2 146.9c-14.7-8.3-31.6-13-49.6-13-51.8 0-94.6 39.2-100.4 89.4h-85c-6.6-49.4-49-87.6-100.2-87.6-18.1 0-35.1 4.8-49.8 13.1l46.8-148.8v-.1c4.8-15.7 21.4-24.6 37.1-19.8 7.1 2.2 14.7-1.9 16.8-9 2.2-7.1-1.9-14.7-9-16.8-29.9-9.1-61.6 7.8-70.8 37.7l-64.4 205.3c-.2.6-.3 1.1-.4 1.7-4.7 11.7-7.4 24.5-7.4 37.8 0 55.7 45.4 101.1 101.1 101.1 51.2 0 93.6-38.2 100.2-87.6h85.5c7.4 48.5 49.4 85.8 99.9 85.8 55.7 0 101.1-45.4 101.1-101.1.1-13.4-2.5-26.2-7.2-37.9zm-379.4 113.8c-40.9 0-74.1-33.2-74.1-74.1s33.2-74.1 74.1-74.1 74.1 33.2 74.1 74.1-33.3 74.1-74.1 74.1zm285.6-1.8c-40.9 0-74.1-33.2-74.1-74.1s33.3-74.1 74.1-74.1 74.1 33.2 74.1 74.1-33.2 74.1-74.1 74.1z"></path>
  </symbol>
  <symbol xmlns="http://www.w3.org/2000/svg" viewBox="0 0 467.5 467.5" id="hand">
    <path d="M438.605 235.4c-.7-3.8-3-7-6.3-9-76-45.3-120.6-54.7-153.2-61.5-4.2-.9-8.3-1.7-12.2-2.6l-14.1-115.9c-.5-25.6-21.5-46.4-47.2-46.4-25.4 0-45.9 19.6-47.2 44.8 0 .5-.1.9-.1 1.4v68.2l-1.1 166.5-18-13.9c-3.5-3-27.9-22.7-58.1-22.7-20.4 0-38.5 8.6-53.8 25.4-4.3 4.7-4.7 11.7-1 16.9 1.3 1.8 32.3 45.2 80.9 89.4 28.8 26.1 57.8 47 86.2 62.1 36.2 19.2 71.6 29.1 105.3 29.4h1.6c46 0 81.8-15.2 106.4-45.1 54.8-66.6 32.8-182.1 31.9-187zm-52.8 170c-19.2 23.4-48 35.2-85.5 35.2h-1.4c-66.9-.5-131.1-46-173.1-84.1-33.5-30.4-58.8-61-70.4-76 7.9-6.1 16.4-9.1 25.8-9.1 21.7 0 40.5 16.1 40.6 16.3.2.2.5.4.7.6l39.9 30.7c4.1 3.1 9.5 3.7 14.2 1.4 4.6-2.2 7.5-6.9 7.6-12l1.3-193.8V46.7c.3-11 9.2-19.6 20.2-19.6 11.2 0 20.2 9.1 20.2 20.2 0 .5 0 1.1.1 1.6l15.1 125.9c.7 5.5 4.6 10 9.9 11.4 7.2 1.9 14.6 3.5 22.5 5.1 31.6 6.6 70.8 14.9 139.6 55.1 3.4 23.2 13.1 109.9-27.3 159z"></path>
  </symbol>
  <symbol xmlns="http://www.w3.org/2000/svg" viewBox="0 0 467.2 467.2" id="headphones">
    <path d="M467.2 235.7c0-62.4-24.3-121.1-68.4-165.2S296 2.1 233.6 2.1 112.5 26.4 68.4 70.5 0 173.3 0 235.7v110.6c0 62.5 50.9 113.4 113.4 113.4 7.5 0 13.5-6 13.5-13.5V246.5c0-7.5-6-13.5-13.5-13.5-34.6 0-65.6 15.5-86.4 40v-37.3c0-113.9 92.7-206.6 206.6-206.6s206.6 92.7 206.6 206.6c0 .9.1 1.8.3 2.7-.2.9-.3 1.8-.3 2.7v37.3c-20.8-24.5-51.8-40-86.4-40-7.5 0-13.5 6-13.5 13.5v199.7c0 7.5 6 13.5 13.5 13.5 62.5 0 113.4-50.9 113.4-113.4V241.1c0-.9-.1-1.8-.3-2.7.2-.9.3-1.8.3-2.7zM99.8 261v170.6c-41.2-6.5-72.9-42.3-72.9-85.3.1-43 31.7-78.8 72.9-85.3zm267.6 176V266.4c41.2 6.5 72.9 42.3 72.9 85.3-.1 43.1-31.7 78.8-72.9 85.3z"></path>
  </symbol>
  <symbol xmlns="http://www.w3.org/2000/svg" viewBox="0 0 471.701 471.701" id="heart">
    <path d="M433.601 67.001c-24.7-24.7-57.4-38.2-92.3-38.2s-67.7 13.6-92.4 38.3l-12.9 12.9-13.1-13.1c-24.7-24.7-57.6-38.4-92.5-38.4-34.8 0-67.6 13.6-92.2 38.2-24.7 24.7-38.3 57.5-38.2 92.4 0 34.9 13.7 67.6 38.4 92.3l187.8 187.8c2.6 2.6 6.1 4 9.5 4 3.4 0 6.9-1.3 9.5-3.9l188.2-187.5c24.7-24.7 38.3-57.5 38.3-92.4.1-34.9-13.4-67.7-38.1-92.4zm-19.2 165.7l-178.7 178-178.3-178.3c-19.6-19.6-30.4-45.6-30.4-73.3s10.7-53.7 30.3-73.2c19.5-19.5 45.5-30.3 73.1-30.3 27.7 0 53.8 10.8 73.4 30.4l22.6 22.6c5.3 5.3 13.8 5.3 19.1 0l22.4-22.4c19.6-19.6 45.7-30.4 73.3-30.4 27.6 0 53.6 10.8 73.2 30.3 19.6 19.6 30.3 45.6 30.3 73.3.1 27.7-10.7 53.7-30.3 73.3z"></path>
  </symbol>
  <symbol xmlns="http://www.w3.org/2000/svg" viewBox="0 0 486.196 486.196" id="house">
    <path d="M481.708 220.456l-228.8-204.6c-.4-.4-.8-.7-1.3-1-5-4.8-13-5-18.3-.3l-228.8 204.6c-5.6 5-6 13.5-1.1 19.1 2.7 3 6.4 4.5 10.1 4.5 3.2 0 6.4-1.1 9-3.4l41.2-36.9v238.6c0 18.7 15.2 34 34 34h72.2c17.6 0 31.9-14.3 31.9-31.9v-121.3c0-2.7 2.2-4.9 4.9-4.9h72.9c2.7 0 4.9 2.2 4.9 4.9v121.3c0 17.6 14.3 31.9 31.9 31.9h72.2c19 0 34-18.7 34-42.6v-228.7l41.2 36.9c2.6 2.3 5.8 3.4 9 3.4 3.7 0 7.4-1.5 10.1-4.5 4.8-5.6 4.3-14.1-1.2-19.1zm-86.2 66.7v145.1c0 9.7-4.8 15.6-7 15.6h-72.2c-2.7 0-4.9-2.2-4.9-4.9v-121.1c0-17.6-14.3-31.9-31.9-31.9h-72.9c-17.6 0-31.9 14.3-31.9 31.9v121.3c0 2.7-2.2 4.9-4.9 4.9h-72.2c-3.8 0-7-3.1-7-7v-262.8l151.8-135.6 153.1 136.9v107.6z"></path>
  </symbol>
  <symbol xmlns="http://www.w3.org/2000/svg" viewBox="0 0 478.2 478.2" id="like">
    <path d="M457.575 325.1c9.8-12.5 14.5-25.9 13.9-39.7-.6-15.2-7.4-27.1-13-34.4 6.5-16.2 9-41.7-12.7-61.5-15.9-14.5-42.9-21-80.3-19.2-26.3 1.2-48.3 6.1-49.2 6.3h-.1c-5 .9-10.3 2-15.7 3.2-.4-6.4.7-22.3 12.5-58.1 14-42.6 13.2-75.2-2.6-97-16.6-22.9-43.1-24.7-50.9-24.7-7.5 0-14.4 3.1-19.3 8.8-11.1 12.9-9.8 36.7-8.4 47.7-13.2 35.4-50.2 122.2-81.5 146.3-.6.4-1.1.9-1.6 1.4-9.2 9.7-15.4 20.2-19.6 29.4-5.9-3.2-12.6-5-19.8-5h-61c-23 0-41.6 18.7-41.6 41.6v162.5c0 23 18.7 41.6 41.6 41.6h61c8.9 0 17.2-2.8 24-7.6l23.5 2.8c3.6.5 67.6 8.6 133.3 7.3 11.9.9 23.1 1.4 33.5 1.4 17.9 0 33.5-1.4 46.5-4.2 30.6-6.5 51.5-19.5 62.1-38.6 8.1-14.6 8.1-29.1 6.8-38.3 19.9-18 23.4-37.9 22.7-51.9-.4-8.1-2.2-15-4.1-20.1zm-409.3 122.2c-8.1 0-14.6-6.6-14.6-14.6V270.1c0-8.1 6.6-14.6 14.6-14.6h61c8.1 0 14.6 6.6 14.6 14.6v162.5c0 8.1-6.6 14.6-14.6 14.6h-61v.1zm383.7-133.9c-4.2 4.4-5 11.1-1.8 16.3 0 .1 4.1 7.1 4.6 16.7.7 13.1-5.6 24.7-18.8 34.6-4.7 3.6-6.6 9.8-4.6 15.4 0 .1 4.3 13.3-2.7 25.8-6.7 12-21.6 20.6-44.2 25.4-18.1 3.9-42.7 4.6-72.9 2.2h-1.4c-64.3 1.4-129.3-7-130-7.1h-.1l-10.1-1.2c.6-2.8.9-5.8.9-8.8V270.1c0-4.3-.7-8.5-1.9-12.4 1.8-6.7 6.8-21.6 18.6-34.3 44.9-35.6 88.8-155.7 90.7-160.9.8-2.1 1-4.4.6-6.7-1.7-11.2-1.1-24.9 1.3-29 5.3.1 19.6 1.6 28.2 13.5 10.2 14.1 9.8 39.3-1.2 72.7-16.8 50.9-18.2 77.7-4.9 89.5 6.6 5.9 15.4 6.2 21.8 3.9 6.1-1.4 11.9-2.6 17.4-3.5.4-.1.9-.2 1.3-.3 30.7-6.7 85.7-10.8 104.8 6.6 16.2 14.8 4.7 34.4 3.4 36.5-3.7 5.6-2.6 12.9 2.4 17.4.1.1 10.6 10 11.1 23.3.4 8.9-3.8 18-12.5 27z"></path>
  </symbol>
  <symbol xmlns="http://www.w3.org/2000/svg" viewBox="0 0 482.8 482.8" id="link">
    <path d="M255.2 209.3c-5.3 5.3-5.3 13.8 0 19.1 21.9 21.9 21.9 57.5 0 79.4l-115 115c-21.9 21.9-57.5 21.9-79.4 0l-17.3-17.3c-21.9-21.9-21.9-57.5 0-79.4l115-115c5.3-5.3 5.3-13.8 0-19.1s-13.8-5.3-19.1 0l-115 115C8.7 322.7 0 343.6 0 365.8c0 22.2 8.6 43.1 24.4 58.8l17.3 17.3c16.2 16.2 37.5 24.3 58.8 24.3s42.6-8.1 58.8-24.3l115-115c32.4-32.4 32.4-85.2 0-117.6-5.2-5.3-13.8-5.3-19.1 0z"></path>
    <path d="M458.5 58.2l-17.3-17.3c-32.4-32.4-85.2-32.4-117.6 0l-115 115c-32.4 32.4-32.4 85.2 0 117.6 5.3 5.3 13.8 5.3 19.1 0s5.3-13.8 0-19.1c-21.9-21.9-21.9-57.5 0-79.4l115-115c21.9-21.9 57.5-21.9 79.4 0l17.3 17.3c21.9 21.9 21.9 57.5 0 79.4l-115 115c-5.3 5.3-5.3 13.8 0 19.1 2.6 2.6 6.1 4 9.5 4s6.9-1.3 9.5-4l115-115c15.7-15.7 24.4-36.6 24.4-58.8 0-22.2-8.6-43.1-24.3-58.8z"></path>
  </symbol>
  <symbol xmlns="http://www.w3.org/2000/svg" viewBox="0 0 471.2 471.2" id="logout">
    <path d="M227.619 444.2h-122.9c-33.4 0-60.5-27.2-60.5-60.5V87.5c0-33.4 27.2-60.5 60.5-60.5h124.9c7.5 0 13.5-6 13.5-13.5s-6-13.5-13.5-13.5h-124.9c-48.3 0-87.5 39.3-87.5 87.5v296.2c0 48.3 39.3 87.5 87.5 87.5h122.9c7.5 0 13.5-6 13.5-13.5s-6.1-13.5-13.5-13.5z"></path>
    <path d="M450.019 226.1l-85.8-85.8c-5.3-5.3-13.8-5.3-19.1 0-5.3 5.3-5.3 13.8 0 19.1l62.8 62.8h-273.9c-7.5 0-13.5 6-13.5 13.5s6 13.5 13.5 13.5h273.9l-62.8 62.8c-5.3 5.3-5.3 13.8 0 19.1 2.6 2.6 6.1 4 9.5 4s6.9-1.3 9.5-4l85.8-85.8c5.4-5.4 5.4-14 .1-19.2z"></path>
  </symbol>
  <symbol xmlns="http://www.w3.org/2000/svg" viewBox="0 0 451 451" id="magnifying-glass">
    <path d="M447.05 428l-109.6-109.6c29.4-33.8 47.2-77.9 47.2-126.1C384.65 86.2 298.35 0 192.35 0 86.25 0 .05 86.3.05 192.3s86.3 192.3 192.3 192.3c48.2 0 92.3-17.8 126.1-47.2L428.05 447c2.6 2.6 6.1 4 9.5 4s6.9-1.3 9.5-4c5.2-5.2 5.2-13.8 0-19zM26.95 192.3c0-91.2 74.2-165.3 165.3-165.3 91.2 0 165.3 74.2 165.3 165.3s-74.1 165.4-165.3 165.4c-91.1 0-165.3-74.2-165.3-165.4z"></path>
  </symbol>
  <symbol xmlns="http://www.w3.org/2000/svg" viewBox="0 0 481.6 481.6" id="monitor">
    <path d="M422.2 24.5H59.4C26.7 24.5 0 51.1 0 83.9V314c0 32.7 26.6 59.4 59.4 59.4h167.9v56.7h-83.7c-7.5 0-13.5 6-13.5 13.5s6 13.5 13.5 13.5H338c7.5 0 13.5-6 13.5-13.5s-6-13.5-13.5-13.5h-83.7v-56.7h167.9c32.7 0 59.4-26.6 59.4-59.4V83.9c0-32.8-26.6-59.4-59.4-59.4zm-362.8 27h362.9c17.8 0 32.4 14.5 32.4 32.4v192.3H27V83.9C27 66 41.5 51.5 59.4 51.5zm362.8 294.9H59.4C41.6 346.4 27 331.9 27 314v-10.8h427.6V314c0 17.8-14.5 32.4-32.4 32.4z"></path>
  </symbol>
  <symbol xmlns="http://www.w3.org/2000/svg" viewBox="0 0 477.216 477.216" id="musical-note">
    <path d="M453.858 105.116v-91.6c0-4.3-2.1-8.4-5.5-10.9-3.5-2.5-8-3.3-12.1-2l-272.9 86.7c-5.6 1.8-9.4 7-9.4 12.9v267.1c-14.3-9.9-32.6-15.3-51.8-15.3-20.3 0-39.6 6.1-54.3 17.1-15.8 11.9-24.5 28-24.5 45.5s8.7 33.6 24.5 45.5c14.7 11 33.9 17.1 54.3 17.1s39.6-6.1 54.3-17.1c15.8-11.9 24.5-28 24.5-45.5v-212.8l245.9-78.2v156.6c-14.3-9.9-32.6-15.3-51.8-15.3-20.3 0-39.6 6.1-54.3 17.1-15.8 11.9-24.5 28-24.5 45.5s8.7 33.6 24.5 45.5c14.7 11 33.9 17.1 54.3 17.1s39.6-6.1 54.3-17.1c15.8-11.9 24.5-28 24.5-45.5v-222.4zm-351.7 345.1c-28.1 0-51.8-16.3-51.8-35.6s23.7-35.6 51.8-35.6 51.8 16.3 51.8 35.6c0 19.4-23.7 35.6-51.8 35.6zm78.8-276.8v-63.4l245.9-78.1v63.4l-245.9 78.1zm194.2 189.7c-28.1 0-51.8-16.3-51.8-35.6s23.7-35.6 51.8-35.6 51.8 16.3 51.8 35.6c-.1 19.3-23.8 35.6-51.8 35.6z"></path>
  </symbol>
  <symbol xmlns="http://www.w3.org/2000/svg" viewBox="0 0 477.175 477.175" id="next-1">
    <path d="M360.731 229.075l-225.1-225.1c-5.3-5.3-13.8-5.3-19.1 0s-5.3 13.8 0 19.1l215.5 215.5-215.5 215.5c-5.3 5.3-5.3 13.8 0 19.1 2.6 2.6 6.1 4 9.5 4 3.4 0 6.9-1.3 9.5-4l225.1-225.1c5.3-5.2 5.3-13.8.1-19z"></path>
  </symbol>
  <symbol xmlns="http://www.w3.org/2000/svg" viewBox="0 0 487.958 487.958" id="next">
    <path d="M483.058 215.613l-215.5-177.6c-4-3.3-9.6-4-14.3-1.8-4.7 2.2-7.7 7-7.7 12.2v93.6c-104.6 3.8-176.5 40.7-213.9 109.8-32.2 59.6-31.9 130.2-31.6 176.9v10.8c0 6.1 4.1 11.5 10.1 13.1 1.1.3 2.3.4 3.4.4 4.8 0 9.3-2.5 11.7-6.8 73-128.7 133.1-134.9 220.2-135.2v93.3c0 5.2 3 10 7.8 12.2s10.3 1.5 14.4-1.8l215.4-178.2c3.1-2.6 4.9-6.4 4.9-10.4s-1.8-7.9-4.9-10.5zm-210.5 160v-78.1c0-3.6-1.4-7-4-9.5-2.5-2.5-6-4-9.5-4-54.4 0-96.1 1.5-136.6 20.4-35 16.3-65.3 44-95.2 87.5 1.2-39.7 6.4-87.1 28.1-127.2 34.4-63.6 101-95.1 203.7-96 7.4-.1 13.4-6.1 13.4-13.5v-78.2l180.7 149.1-180.6 149.5z"></path>
  </symbol>
  <symbol xmlns="http://www.w3.org/2000/svg" viewBox="0 0 482.8 482.8" id="padlock">
    <path d="M395.95 210.4h-7.1v-62.9c0-81.3-66.1-147.5-147.5-147.5-81.3 0-147.5 66.1-147.5 147.5 0 7.5 6 13.5 13.5 13.5s13.5-6 13.5-13.5c0-66.4 54-120.5 120.5-120.5 66.4 0 120.5 54 120.5 120.5v62.9h-275c-14.4 0-26.1 11.7-26.1 26.1v168.1c0 43.1 35.1 78.2 78.2 78.2h204.9c43.1 0 78.2-35.1 78.2-78.2V236.5c0-14.4-11.7-26.1-26.1-26.1zm-.9 194.2c0 28.2-22.9 51.2-51.2 51.2h-204.8c-28.2 0-51.2-22.9-51.2-51.2V237.4h307.2v167.2z"></path>
    <path d="M241.45 399.1c27.9 0 50.5-22.7 50.5-50.5 0-27.9-22.7-50.5-50.5-50.5-27.9 0-50.5 22.7-50.5 50.5s22.6 50.5 50.5 50.5zm0-74.1c13 0 23.5 10.6 23.5 23.5s-10.5 23.6-23.5 23.6-23.5-10.6-23.5-23.5 10.5-23.6 23.5-23.6z"></path>
  </symbol>
  <symbol xmlns="http://www.w3.org/2000/svg" viewBox="0 0 469.038 469.038" id="paper-plane">
    <path d="M465.023 4.079c-3.9-3.9-9.9-5-14.9-2.8l-442 193.7c-4.7 2.1-7.8 6.6-8.1 11.7s2.4 9.9 6.8 12.4l154.1 87.4 91.5 155.7c2.4 4.1 6.9 6.7 11.6 6.7h.8c5.1-.3 9.5-3.4 11.6-8.1l191.5-441.8c2.2-5.1 1.1-11-2.9-14.9zm-70.3 50.9l-226.2 224.7-124.9-70.8 351.1-153.9zm-132.5 370.6l-74.5-126.9 227.5-226-153 352.9z"></path>
  </symbol>
  <symbol xmlns="http://www.w3.org/2000/svg" viewBox="0 0 473.806 473.806" id="phone-call">
    <path d="M374.456 293.506c-9.7-10.1-21.4-15.5-33.8-15.5-12.3 0-24.1 5.3-34.2 15.4l-31.6 31.5c-2.6-1.4-5.2-2.7-7.7-4-3.6-1.8-7-3.5-9.9-5.3-29.6-18.8-56.5-43.3-82.3-75-12.5-15.8-20.9-29.1-27-42.6 8.2-7.5 15.8-15.3 23.2-22.8 2.8-2.8 5.6-5.7 8.4-8.5 21-21 21-48.2 0-69.2l-27.3-27.3c-3.1-3.1-6.3-6.3-9.3-9.5-6-6.2-12.3-12.6-18.8-18.6-9.7-9.6-21.3-14.7-33.5-14.7s-24 5.1-34 14.7l-.2.2-34 34.3c-12.8 12.8-20.1 28.4-21.7 46.5-2.4 29.2 6.2 56.4 12.8 74.2 16.2 43.7 40.4 84.2 76.5 127.6 43.8 52.3 96.5 93.6 156.7 122.7 23 10.9 53.7 23.8 88 26 2.1.1 4.3.2 6.3.2 23.1 0 42.5-8.3 57.7-24.8.1-.2.3-.3.4-.5 5.2-6.3 11.2-12 17.5-18.1 4.3-4.1 8.7-8.4 13-12.9 9.9-10.3 15.1-22.3 15.1-34.6 0-12.4-5.3-24.3-15.4-34.3l-54.9-55.1zm35.8 105.3c-.1 0-.1.1 0 0-3.9 4.2-7.9 8-12.2 12.2-6.5 6.2-13.1 12.7-19.3 20-10.1 10.8-22 15.9-37.6 15.9-1.5 0-3.1 0-4.6-.1-29.7-1.9-57.3-13.5-78-23.4-56.6-27.4-106.3-66.3-147.6-115.6-34.1-41.1-56.9-79.1-72-119.9-9.3-24.9-12.7-44.3-11.2-62.6 1-11.7 5.5-21.4 13.8-29.7l34.1-34.1c4.9-4.6 10.1-7.1 15.2-7.1 6.3 0 11.4 3.8 14.6 7l.3.3c6.1 5.7 11.9 11.6 18 17.9 3.1 3.2 6.3 6.4 9.5 9.7l27.3 27.3c10.6 10.6 10.6 20.4 0 31-2.9 2.9-5.7 5.8-8.6 8.6-8.4 8.6-16.4 16.6-25.1 24.4-.2.2-.4.3-.5.5-8.6 8.6-7 17-5.2 22.7l.3.9c7.1 17.2 17.1 33.4 32.3 52.7l.1.1c27.6 34 56.7 60.5 88.8 80.8 4.1 2.6 8.3 4.7 12.3 6.7 3.6 1.8 7 3.5 9.9 5.3.4.2.8.5 1.2.7 3.4 1.7 6.6 2.5 9.9 2.5 8.3 0 13.5-5.2 15.2-6.9l34.2-34.2c3.4-3.4 8.8-7.5 15.1-7.5 6.2 0 11.3 3.9 14.4 7.3l.2.2 55.1 55.1c10.3 10.2 10.3 20.7.1 31.3zm-154.2-286.1c26.2 4.4 50 16.8 69 35.8s31.3 42.8 35.8 69c1.1 6.6 6.8 11.2 13.3 11.2.8 0 1.5-.1 2.3-.2 7.4-1.2 12.3-8.2 11.1-15.6-5.4-31.7-20.4-60.6-43.3-83.5s-51.8-37.9-83.5-43.3c-7.4-1.2-14.3 3.7-15.6 11s3.5 14.4 10.9 15.6zm217.2 96.3c-8.9-52.2-33.5-99.7-71.3-137.5s-85.3-62.4-137.5-71.3c-7.3-1.3-14.2 3.7-15.5 11-1.2 7.4 3.7 14.3 11.1 15.6 46.6 7.9 89.1 30 122.9 63.7 33.8 33.8 55.8 76.3 63.7 122.9 1.1 6.6 6.8 11.2 13.3 11.2.8 0 1.5-.1 2.3-.2 7.3-1.1 12.3-8.1 11-15.4z"></path>
  </symbol>
  <symbol xmlns="http://www.w3.org/2000/svg" viewBox="0 0 487.7 487.7" id="photo-camera">
    <path d="M480.5 151.65c-2-1.1-48.8-25.4-126.8-40.1l-3-12.8c-7.8-33.5-37.3-57-71.8-57h-70.1c-34.4 0-63.9 23.4-71.8 57l-3 12.8c-78 14.6-124.8 39-126.8 40.1-4.4 2.3-7.2 6.9-7.2 11.9v159c0 63.7 51.8 115.6 115.6 115.6 7.5 0 13.5-6 13.5-13.5s-6-13.5-13.5-13.5c-48.8 0-88.6-39.7-88.6-88.6v-150.5c16.2-7.4 59-24.9 120.5-35.5 5.3-.9 9.6-5 10.8-10.2l5-21.5c5-21.2 23.6-36.1 45.5-36.1h70.1c21.8 0 40.5 14.8 45.5 36.1l5 21.5c1.2 5.3 5.5 9.3 10.8 10.2 61.3 10.6 104.2 28.1 120.5 35.5v150.5c0 48.8-39.7 88.6-88.6 88.6-7.5 0-13.5 6-13.5 13.5s6 13.5 13.5 13.5c63.7 0 115.6-51.8 115.6-115.6v-159c0-5-2.7-9.6-7.2-11.9z"></path>
    <path d="M44.2 124.05c1.4 0 2.8-.2 4.2-.7 14.2-4.7 29.1-8.9 44.3-12.5 7.3-1.7 11.7-9 10-16.2-1.7-7.3-9-11.7-16.2-10-15.9 3.8-31.6 8.2-46.6 13.1-7.1 2.3-10.9 10-8.6 17 2 5.7 7.3 9.3 12.9 9.3zm199.7 11c-85.7 0-155.4 69.7-155.4 155.4s69.7 155.5 155.4 155.5 155.4-69.7 155.4-155.4-69.7-155.5-155.4-155.5zm0 283.9c-70.8 0-128.4-57.6-128.4-128.4s57.6-128.5 128.4-128.5 128.4 57.6 128.4 128.4-57.6 128.5-128.4 128.5z"></path>
  </symbol>
  <symbol xmlns="http://www.w3.org/2000/svg" viewBox="0 0 476.3 476.3" id="pie-chart">
    <path d="M411.75 250.2h-185.6V64.6c0-7.5-6-13.5-13.5-13.5C95.45 51.1.05 146.5.05 263.7s95.4 212.6 212.6 212.6 212.6-95.4 212.6-212.6c0-7.4-6.1-13.5-13.5-13.5zm-199.1 199.1c-102.3 0-185.6-83.3-185.6-185.6 0-97.8 76-178.2 172.1-185.1v185.1c0 7.5 6 13.5 13.5 13.5h185.1c-6.9 96.1-87.3 172.1-185.1 172.1z"></path>
    <path d="M476.25 211.9c-.2-51.6-19.1-101.3-53.2-140C382.65 26.2 324.65 0 263.65 0c-7.5 0-13.5 6-13.5 13.5v199.1c0 7.5 6 13.5 13.5 13.5h199.1c7.5 0 13.5-6 13.5-13.5v-.7zm-199.1-12.7V27.6c48.2 3.5 93.4 25.8 125.6 62.3 27 30.5 43 68.9 46 109.3h-171.6z"></path>
  </symbol>
  <symbol xmlns="http://www.w3.org/2000/svg" viewBox="0 0 487.602 487.602" id="piggy-bank">
    <path d="M451.7 178.251h-7.1c-11.8-30.3-31.6-57.8-58-80.1-3.7-13.4-.9-27.9 8.6-42.9 5.3-8.5 5.6-18.7.8-27.4-4.8-8.6-13.8-13.9-23.5-13.9-1.1 0-2.3.1-3.4.2-36.5 4.5-58.7 20.8-72 36.3-16-5-36.3-6.5-40.1-6.8-9.4-1-19-1.6-28.5-1.6-60.7 0-117.8 20.8-160.9 58.4-43.6 38.1-67.6 89-67.6 143.2 0 14 1.6 28 4.9 41.7.1.3.1.6.2.8l.1.5c3.4 13.8 8.5 27.3 15 40.2 10.9 23.4 23.9 43 38.5 58.1 20.2 20.8 23.7 47.2 24.2 57.8v5.9c0 1.1.1 2.1.3 3.1 1.9 12.4 12.6 21.9 25.4 21.9h74.5c14.2 0 25.7-11.5 25.7-25.7v-3.4c10.6.8 21.3.9 32 .4v3c0 14.2 11.5 25.7 25.7 25.7H341c14.2 0 25.7-11.5 25.7-25.7v-18.2c.1-4.2 1.7-24.1 20.6-41.3.9-.8 1.9-1.6 2.8-2.4l.2-.2c.3-.2.5-.4.7-.7 24.9-22.3 43.7-49.5 54.6-79.2h5.9c19.9 0 36.1-16.2 36.1-36.1v-55.7c.2-19.8-16-35.9-35.9-35.9zm-79.2-137.4c-.1 0-.1 0 0 0l-.1-.1v.1l-1.7-13.4 1.8 13.4zm88.3 229.1c0 5-4.1 9.1-9.1 9.1h-15.6c-5.9 0-11.2 3.9-12.9 9.5-8.8 28.8-26.3 55.4-50.4 76.9l-.2.2-.1.1-2.7 2.4-.3.3c-26.7 24.2-29.4 52.7-29.6 60.9v17.4h-72v-16.3c0-3.8-1.6-7.5-4.5-10-2.8-2.6-6.7-3.8-10.4-3.4-8.2.9-16.4 1.3-24.5 1.3-10.5 0-21-.7-31.3-2.1-3.9-.5-7.8.7-10.7 3.2-2.9 2.6-4.6 6.3-4.6 10.2v17.1H110v-4.9c-.6-13.5-4.9-48-31.8-75.7-12.6-13-23.9-30.1-33.5-50.9-.1-.2-.2-.3-.2-.5-5.7-11.1-10.1-22.7-13-34.6 0-.1-.1-.2-.1-.3v-.2c-2.8-11.8-4.3-23.9-4.3-35.9 0-96.3 90.4-174.6 201.5-174.6 8.6 0 17.3.5 25.8 1.4.2 0 .4 0 .6.1 11.2.7 32 3.6 40.3 8.1 6.1 3.3 13.7 1.4 17.6-4.3 8.7-12.9 26.1-29.2 59.5-33.3-13.5 21.6-17.5 44-11.6 64.9.1 3.9 2 7.6 5 10.1 27 21.8 46.6 49.5 56.6 80 1.8 5.5 7 9.3 12.8 9.3h16.6c5 0 9.1 4.1 9.1 9.1v55.4h-.1z"></path>
  </symbol>
  <symbol xmlns="http://www.w3.org/2000/svg" viewBox="0 0 477 477" id="placeholder">
    <path d="M238.4 0C133 0 47.2 85.8 47.2 191.2c0 12 1.1 24.1 3.4 35.9.1.7.5 2.8 1.3 6.4 2.9 12.9 7.2 25.6 12.8 37.7 20.6 48.5 65.9 123 165.3 202.8 2.5 2 5.5 3 8.5 3s6-1 8.5-3c99.3-79.8 144.7-154.3 165.3-202.8 5.6-12.1 9.9-24.7 12.8-37.7.8-3.6 1.2-5.7 1.3-6.4 2.2-11.8 3.4-23.9 3.4-35.9C429.6 85.8 343.8 0 238.4 0zm161.2 222.4c0 .2-.1.4-.1.6-.1.5-.4 2-.9 4.3v.2c-2.5 11.2-6.2 22.1-11.1 32.6-.1.1-.1.3-.2.4-18.7 44.3-59.7 111.9-148.9 185.6-89.2-73.7-130.2-141.3-148.9-185.6-.1-.1-.1-.3-.2-.4-4.8-10.4-8.5-21.4-11.1-32.6v-.2c-.6-2.3-.8-3.8-.9-4.3 0-.2-.1-.4-.1-.7-2-10.3-3-20.7-3-31.2 0-90.5 73.7-164.2 164.2-164.2s164.2 73.7 164.2 164.2c0 10.6-1 21.1-3 31.3z"></path>
    <path d="M238.4 71.9c-66.9 0-121.4 54.5-121.4 121.4s54.5 121.4 121.4 121.4 121.4-54.5 121.4-121.4S305.3 71.9 238.4 71.9zm0 215.8c-52.1 0-94.4-42.4-94.4-94.4s42.4-94.4 94.4-94.4 94.4 42.4 94.4 94.4-42.3 94.4-94.4 94.4z"></path>
  </symbol>
  <symbol xmlns="http://www.w3.org/2000/svg" viewBox="0 0 482.5 482.5" id="printer">
    <path d="M399.25 98.9h-12.4V71.3c0-39.3-32-71.3-71.3-71.3h-149.7c-39.3 0-71.3 32-71.3 71.3v27.6h-11.3c-39.3 0-71.3 32-71.3 71.3v115c0 39.3 32 71.3 71.3 71.3h11.2v90.4c0 19.6 16 35.6 35.6 35.6h221.1c19.6 0 35.6-16 35.6-35.6v-90.4h12.5c39.3 0 71.3-32 71.3-71.3v-115c0-39.3-32-71.3-71.3-71.3zm-277.8-27.6c0-24.4 19.9-44.3 44.3-44.3h149.6c24.4 0 44.3 19.9 44.3 44.3v27.6h-238.2V71.3zm238.3 375.8c0 4.7-3.9 8.6-8.6 8.6h-221.1c-4.7 0-8.6-3.9-8.6-8.6V298h238.3v149.1zm83.8-161.8c0 24.4-19.9 44.3-44.3 44.3h-12.4V298h17.8c7.5 0 13.5-6 13.5-13.5s-6-13.5-13.5-13.5h-330c-7.5 0-13.5 6-13.5 13.5s6 13.5 13.5 13.5h19.9v31.6h-11.3c-24.4 0-44.3-19.9-44.3-44.3v-115c0-24.4 19.9-44.3 44.3-44.3h316c24.4 0 44.3 19.9 44.3 44.3v115z"></path>
    <path d="M154.15 364.4h171.9c7.5 0 13.5-6 13.5-13.5s-6-13.5-13.5-13.5h-171.9c-7.5 0-13.5 6-13.5 13.5s6.1 13.5 13.5 13.5zm173 28.2h-172c-7.5 0-13.5 6-13.5 13.5s6 13.5 13.5 13.5h171.9c7.5 0 13.5-6 13.5-13.5s-6-13.5-13.4-13.5zm71.8-240.7h-27.4c-7.5 0-13.5 6-13.5 13.5s6 13.5 13.5 13.5h27.4c7.5 0 13.5-6 13.5-13.5s-6-13.5-13.5-13.5z"></path>
  </symbol>
  <symbol xmlns="http://www.w3.org/2000/svg" viewBox="0 0 480.3 480.3" id="reload">
    <path d="M254.15 234.1V13.5c0-7.5-6-13.5-13.5-13.5s-13.5 6-13.5 13.5v220.6c-31.3 6.3-55 34-55 67.2s23.7 60.9 55 67.2v98.2c0 7.5 6 13.5 13.5 13.5s13.5-6 13.5-13.5v-98.2c31.3-6.3 55-34 55-67.2 0-33.1-23.6-60.9-55-67.2zm-13.5 108.7c-22.9 0-41.5-18.6-41.5-41.5s18.6-41.5 41.5-41.5 41.5 18.6 41.5 41.5-18.6 41.5-41.5 41.5zM88.85 120.9V13.5c0-7.5-6-13.5-13.5-13.5s-13.5 6-13.5 13.5v107.4c-31.3 6.3-55 34-55 67.2s23.7 60.9 55 67.2v211.4c0 7.5 6 13.5 13.5 13.5s13.5-6 13.5-13.5V255.2c31.3-6.3 55-34 55-67.2s-23.7-60.8-55-67.1zm-13.5 108.7c-22.9 0-41.5-18.6-41.5-41.5s18.6-41.5 41.5-41.5 41.5 18.6 41.5 41.5-18.7 41.5-41.5 41.5zm343.1-108.7V13.5c0-7.5-6-13.5-13.5-13.5s-13.5 6-13.5 13.5v107.4c-31.3 6.3-55 34-55 67.2s23.7 60.9 55 67.2v211.5c0 7.5 6 13.5 13.5 13.5s13.5-6 13.5-13.5V255.2c31.3-6.3 55-34 55-67.2s-23.6-60.8-55-67.1zm-13.5 108.7c-22.9 0-41.5-18.6-41.5-41.5s18.6-41.5 41.5-41.5 41.5 18.6 41.5 41.5-18.6 41.5-41.5 41.5z"></path>
  </symbol>
  <symbol xmlns="http://www.w3.org/2000/svg" viewBox="0 0 489.711 489.711" id="settings-1">
    <path d="M112.156 97.111c72.3-65.4 180.5-66.4 253.8-6.7l-58.1 2.2c-7.5.3-13.3 6.5-13 14 .3 7.3 6.3 13 13.5 13h.5l89.2-3.3c7.3-.3 13-6.2 13-13.5v-1.6l-3.3-88.2c-.3-7.5-6.6-13.3-14-13-7.5.3-13.3 6.5-13 14l2.1 55.3c-36.3-29.7-81-46.9-128.8-49.3-59.2-3-116.1 17.3-160 57.1-60.4 54.7-86 137.9-66.8 217.1 1.5 6.2 7 10.3 13.1 10.3 1.1 0 2.1-.1 3.2-.4 7.2-1.8 11.7-9.1 9.9-16.3-16.8-69.6 5.6-142.7 58.7-190.7zm350.3 98.4c-1.8-7.2-9.1-11.7-16.3-9.9-7.2 1.8-11.7 9.1-9.9 16.3 16.9 69.6-5.6 142.7-58.7 190.7-37.3 33.7-84.1 50.3-130.7 50.3-44.5 0-88.9-15.1-124.7-44.9l58.8-5.3c7.4-.7 12.9-7.2 12.2-14.7s-7.2-12.9-14.7-12.2l-88.9 8c-7.4.7-12.9 7.2-12.2 14.7l8 88.9c.6 7 6.5 12.3 13.4 12.3.4 0 .8 0 1.2-.1 7.4-.7 12.9-7.2 12.2-14.7l-4.8-54.1c36.3 29.4 80.8 46.5 128.3 48.9 3.8.2 7.6.3 11.3.3 55.1 0 107.5-20.2 148.7-57.4 60.4-54.7 86-137.8 66.8-217.1z"></path>
  </symbol>
  <symbol xmlns="http://www.w3.org/2000/svg" viewBox="0 0 478.703 478.703" id="settings">
    <path d="M454.2 189.101l-33.6-5.7c-3.5-11.3-8-22.2-13.5-32.6l19.8-27.7c8.4-11.8 7.1-27.9-3.2-38.1l-29.8-29.8c-5.6-5.6-13-8.7-20.9-8.7-6.2 0-12.1 1.9-17.1 5.5l-27.8 19.8c-10.8-5.7-22.1-10.4-33.8-13.9l-5.6-33.2a29.54 29.54 0 0 0-29.2-24.7h-42.1c-14.5 0-26.8 10.4-29.2 24.7l-5.8 34c-11.2 3.5-22.1 8.1-32.5 13.7l-27.5-19.8c-5-3.6-11-5.5-17.2-5.5-7.9 0-15.4 3.1-20.9 8.7l-29.9 29.8c-10.2 10.2-11.6 26.3-3.2 38.1l20 28.1c-5.5 10.5-9.9 21.4-13.3 32.7l-33.2 5.6a29.54 29.54 0 0 0-24.7 29.2v42.1c0 14.5 10.4 26.8 24.7 29.2l34 5.8c3.5 11.2 8.1 22.1 13.7 32.5l-19.7 27.4c-8.4 11.8-7.1 27.9 3.2 38.1l29.8 29.8c5.6 5.6 13 8.7 20.9 8.7 6.2 0 12.1-1.9 17.1-5.5l28.1-20c10.1 5.3 20.7 9.6 31.6 13l5.6 33.6a29.54 29.54 0 0 0 29.2 24.7h42.2c14.5 0 26.8-10.4 29.2-24.7l5.7-33.6c11.3-3.5 22.2-8 32.6-13.5l27.7 19.8c5 3.6 11 5.5 17.2 5.5 7.9 0 15.3-3.1 20.9-8.7l29.8-29.8c10.2-10.2 11.6-26.3 3.2-38.1l-19.8-27.8c5.5-10.5 10.1-21.4 13.5-32.6l33.6-5.6a29.54 29.54 0 0 0 24.7-29.2v-42.1c.2-14.5-10.2-26.8-24.5-29.2zm-2.3 71.3c0 1.3-.9 2.4-2.2 2.6l-42 7c-5.3.9-9.5 4.8-10.8 9.9-3.8 14.7-9.6 28.8-17.4 41.9-2.7 4.6-2.5 10.3.6 14.7l24.7 34.8c.7 1 .6 2.5-.3 3.4l-29.8 29.8c-.7.7-1.4.8-1.9.8-.6 0-1.1-.2-1.5-.5l-34.7-24.7c-4.3-3.1-10.1-3.3-14.7-.6-13.1 7.8-27.2 13.6-41.9 17.4-5.2 1.3-9.1 5.6-9.9 10.8l-7.1 42c-.2 1.3-1.3 2.2-2.6 2.2h-42.1c-1.3 0-2.4-.9-2.6-2.2l-7-42c-.9-5.3-4.8-9.5-9.9-10.8-14.3-3.7-28.1-9.4-41-16.8-2.1-1.2-4.5-1.8-6.8-1.8-2.7 0-5.5.8-7.8 2.5l-35 24.9c-.5.3-1 .5-1.5.5-.4 0-1.2-.1-1.9-.8l-29.8-29.8c-.9-.9-1-2.3-.3-3.4l24.6-34.5c3.1-4.4 3.3-10.2.6-14.8-7.8-13-13.8-27.1-17.6-41.8-1.4-5.1-5.6-9-10.8-9.9l-42.3-7.2c-1.3-.2-2.2-1.3-2.2-2.6v-42.1c0-1.3.9-2.4 2.2-2.6l41.7-7c5.3-.9 9.6-4.8 10.9-10 3.7-14.7 9.4-28.9 17.1-42 2.7-4.6 2.4-10.3-.7-14.6l-24.9-35c-.7-1-.6-2.5.3-3.4l29.8-29.8c.7-.7 1.4-.8 1.9-.8.6 0 1.1.2 1.5.5l34.5 24.6c4.4 3.1 10.2 3.3 14.8.6 13-7.8 27.1-13.8 41.8-17.6 5.1-1.4 9-5.6 9.9-10.8l7.2-42.3c.2-1.3 1.3-2.2 2.6-2.2h42.1c1.3 0 2.4.9 2.6 2.2l7 41.7c.9 5.3 4.8 9.6 10 10.9 15.1 3.8 29.5 9.7 42.9 17.6 4.6 2.7 10.3 2.5 14.7-.6l34.5-24.8c.5-.3 1-.5 1.5-.5.4 0 1.2.1 1.9.8l29.8 29.8c.9.9 1 2.3.3 3.4l-24.7 34.7c-3.1 4.3-3.3 10.1-.6 14.7 7.8 13.1 13.6 27.2 17.4 41.9 1.3 5.2 5.6 9.1 10.8 9.9l42 7.1c1.3.2 2.2 1.3 2.2 2.6v42.1h-.1z"></path>
    <path d="M239.4 136.001c-57 0-103.3 46.3-103.3 103.3s46.3 103.3 103.3 103.3 103.3-46.3 103.3-103.3-46.3-103.3-103.3-103.3zm0 179.6c-42.1 0-76.3-34.2-76.3-76.3s34.2-76.3 76.3-76.3 76.3 34.2 76.3 76.3-34.2 76.3-76.3 76.3z"></path>
  </symbol>
  <symbol xmlns="http://www.w3.org/2000/svg" viewBox="0 0 481.6 481.6" id="share">
    <path d="M381.6 309.4c-27.7 0-52.4 13.2-68.2 33.6l-132.3-73.9c3.1-8.9 4.8-18.5 4.8-28.4 0-10-1.7-19.5-4.9-28.5l132.2-73.8c15.7 20.5 40.5 33.8 68.3 33.8 47.4 0 86.1-38.6 86.1-86.1S429 0 381.5 0s-86.1 38.6-86.1 86.1c0 10 1.7 19.6 4.9 28.5l-132.1 73.8c-15.7-20.6-40.5-33.8-68.3-33.8-47.4 0-86.1 38.6-86.1 86.1s38.7 86.1 86.2 86.1c27.8 0 52.6-13.3 68.4-33.9l132.2 73.9c-3.2 9-5 18.7-5 28.7 0 47.4 38.6 86.1 86.1 86.1s86.1-38.6 86.1-86.1-38.7-86.1-86.2-86.1zm0-282.3c32.6 0 59.1 26.5 59.1 59.1s-26.5 59.1-59.1 59.1-59.1-26.5-59.1-59.1 26.6-59.1 59.1-59.1zM100 299.8c-32.6 0-59.1-26.5-59.1-59.1s26.5-59.1 59.1-59.1 59.1 26.5 59.1 59.1-26.6 59.1-59.1 59.1zm281.6 154.7c-32.6 0-59.1-26.5-59.1-59.1s26.5-59.1 59.1-59.1 59.1 26.5 59.1 59.1-26.5 59.1-59.1 59.1z"></path>
  </symbol>
  <symbol xmlns="http://www.w3.org/2000/svg" viewBox="0 0 489 489" id="shopping-bag">
    <path d="M440.1 422.7l-28-315.3c-.6-7-6.5-12.3-13.4-12.3h-57.6C340.3 42.5 297.3 0 244.5 0s-95.8 42.5-96.6 95.1H90.3c-7 0-12.8 5.3-13.4 12.3l-28 315.3c0 .4-.1.8-.1 1.2 0 35.9 32.9 65.1 73.4 65.1h244.6c40.5 0 73.4-29.2 73.4-65.1 0-.4 0-.8-.1-1.2zM244.5 27c37.9 0 68.8 30.4 69.6 68.1H174.9c.8-37.7 31.7-68.1 69.6-68.1zm122.3 435H122.2c-25.4 0-46-16.8-46.4-37.5l26.8-302.3h45.2v41c0 7.5 6 13.5 13.5 13.5s13.5-6 13.5-13.5v-41h139.3v41c0 7.5 6 13.5 13.5 13.5s13.5-6 13.5-13.5v-41h45.2l26.9 302.3c-.4 20.7-21.1 37.5-46.4 37.5z"></path>
  </symbol>
  <symbol xmlns="http://www.w3.org/2000/svg" viewBox="0 0 486.569 486.569" id="shopping-cart">
    <path d="M146.069 320.369h268.1c30.4 0 55.2-24.8 55.2-55.2v-114c0-.2 0-.4-.1-.6 0-.2-.1-.5-.1-.7s-.1-.4-.1-.6c-.1-.2-.1-.4-.2-.7-.1-.2-.1-.4-.2-.6-.1-.2-.1-.4-.2-.6-.1-.2-.2-.4-.3-.7-.1-.2-.2-.4-.3-.5l-.3-.6c-.1-.2-.2-.3-.3-.5-.1-.2-.3-.4-.4-.6-.1-.2-.2-.3-.4-.5-.1-.2-.3-.3-.4-.5s-.3-.3-.4-.5-.3-.3-.4-.4l-.5-.5c-.2-.1-.3-.3-.5-.4-.2-.1-.4-.3-.6-.4-.2-.1-.3-.2-.5-.3s-.4-.2-.6-.4l-.6-.3-.6-.3-.6-.3c-.2-.1-.4-.1-.6-.2-.2-.1-.5-.2-.7-.2s-.4-.1-.5-.1c-.3-.1-.5-.1-.8-.1-.1 0-.2-.1-.4-.1l-339.8-46.9v-47.4c0-.5 0-1-.1-1.4 0-.1 0-.2-.1-.4 0-.3-.1-.6-.1-.9-.1-.3-.1-.5-.2-.8 0-.2-.1-.3-.1-.5l-.3-.9c0-.1-.1-.3-.1-.4-.1-.3-.2-.5-.4-.8-.1-.1-.1-.3-.2-.4-.1-.2-.2-.4-.4-.6-.1-.2-.2-.3-.3-.5s-.2-.3-.3-.5-.3-.4-.4-.6l-.3-.3-.6-.6-.3-.3c-.2-.2-.4-.4-.7-.6-.1-.1-.3-.2-.4-.3-.2-.2-.4-.3-.6-.5-.3-.2-.6-.4-.8-.5-.1-.1-.2-.1-.3-.2-.4-.2-.9-.4-1.3-.6l-73.7-31c-6.9-2.9-14.8.3-17.7 7.2s.3 14.8 7.2 17.7l65.4 27.6v295.8c0 28 21 51.2 48.1 54.7-4.9 8.2-7.8 17.8-7.8 28 0 30.1 24.5 54.5 54.5 54.5s54.5-24.5 54.5-54.5c0-10-2.7-19.5-7.5-27.5h121.4c-4.8 8.1-7.5 17.5-7.5 27.5 0 30.1 24.5 54.5 54.5 54.5s54.5-24.5 54.5-54.5-24.5-54.5-54.5-54.5h-255c-15.6 0-28.2-12.7-28.2-28.2v-36.6c8.2 4.8 17.9 7.6 28.2 7.6zm67.2 111.6c0 15.2-12.4 27.5-27.5 27.5s-27.5-12.4-27.5-27.5 12.4-27.5 27.5-27.5 27.5 12.3 27.5 27.5zm215.4 0c0 15.2-12.4 27.5-27.5 27.5s-27.5-12.4-27.5-27.5 12.4-27.5 27.5-27.5 27.5 12.3 27.5 27.5zm-14.5-138.6h-268.1c-15.6 0-28.2-12.7-28.2-28.2v-145.9l324.5 44.7v101.1c0 15.7-12.7 28.3-28.2 28.3z"></path>
  </symbol>
  <symbol xmlns="http://www.w3.org/2000/svg" viewBox="0 0 471.475 471.475" id="shuffle">
    <path d="M180.25 329.875c-6-4.5-14.4-3.3-18.9 2.7-22.5 29.8-56.8 46.9-94.1 46.9h-37.2c-7.5 0-13.5 6-13.5 13.5s6 13.5 13.5 13.5h37.3c23.1 0 45.2-5.3 65.6-15.7 19.5-9.9 36.8-24.4 50-42 4.4-5.9 3.3-14.4-2.7-18.9zm38.1-189.8c2.5 1.9 5.4 2.8 8.3 2.8 4 0 8-1.8 10.7-5.2 22.5-29 56.4-45.6 93-45.6h78.5l-41.9 41.9c-5.3 5.3-5.3 13.8 0 19.1 2.6 2.6 6.1 4 9.5 4s6.9-1.3 9.5-4l65-65c5.3-5.3 5.3-13.8 0-19.1l-65-65c-5.3-5.3-13.8-5.3-19.1 0-5.3 5.3-5.3 13.8 0 19.1l41.9 41.9h-78.5c-45 0-86.7 20.4-114.4 56.1-4.4 6-3.4 14.4 2.5 19z"></path>
    <path d="M386.05 318.475c-5.3-5.3-13.8-5.3-19.1 0-5.3 5.3-5.3 13.8 0 19.1l41.9 41.9h-78.5c-64.9 0-117.7-52.8-117.7-117.7v-52c0-79.8-64.9-144.7-144.7-144.7h-37.3c-7.5 0-13.5 6-13.5 13.5s6 13.5 13.5 13.5h37.3c64.9 0 117.7 52.8 117.7 117.7v52c0 79.8 64.9 144.7 144.7 144.7h78.5l-41.9 41.9c-5.3 5.3-5.3 13.8 0 19.1 2.6 2.6 6.1 4 9.5 4s6.9-1.3 9.5-4l65-65c5.3-5.3 5.3-13.8 0-19.1l-64.9-64.9z"></path>
  </symbol>
  <symbol xmlns="http://www.w3.org/2000/svg" viewBox="0 0 485 485" id="speaker">
    <path d="M282.5 55.15c-33.5 0-66.3 8.9-95 25.8-25.6 15.1-47.3 36.1-63.2 61.1H52.7c-29.1 0-52.7 23.6-52.7 52.7v95.5c0 29.1 23.6 52.7 52.7 52.7h71.6c15.9 25 37.6 46 63.2 61.1 28.7 16.9 61.5 25.8 95 25.8 7.5 0 13.5-6 13.5-13.5V68.65c0-7.4-6-13.5-13.5-13.5zm-164.1 260.8H52.7c-14.2 0-25.7-11.5-25.7-25.7v-95.5c0-14.2 11.5-25.7 25.7-25.7h65.7v146.9zm150.6 86.4c-50.7-4.3-96.9-32.8-123.6-76.6v-166.4c26.7-43.8 72.9-72.3 123.6-76.6v319.6zm79.9-264.4c-6.1-4.3-14.5-2.8-18.8 3.4-4.3 6.1-2.8 14.5 3.4 18.8 27 18.8 43.1 49.7 43.1 82.5s-16.1 63.7-43.1 82.5c-6.1 4.3-7.6 12.7-3.4 18.8 2.6 3.8 6.8 5.8 11.1 5.8 2.7 0 5.4-.8 7.7-2.4 34.2-23.9 54.7-63 54.7-104.6s-20.5-81-54.7-104.8z"></path>
    <path d="M401.1 82.05c-6.1-4.3-14.5-2.8-18.8 3.4-4.3 6.1-2.8 14.5 3.4 18.8 45.3 31.6 72.3 83.3 72.3 138.3s-27 106.8-72.3 138.3c-6.1 4.3-7.6 12.7-3.4 18.8 2.6 3.8 6.8 5.8 11.1 5.8 2.7 0 5.4-.8 7.7-2.4 52.5-36.6 83.9-96.6 83.9-160.5s-31.3-123.9-83.9-160.5z"></path>
  </symbol>
  <symbol xmlns="http://www.w3.org/2000/svg" viewBox="0 0 487.222 487.222" id="star">
    <path d="M486.554 186.811c-1.6-4.9-5.8-8.4-10.9-9.2l-152-21.6-68.4-137.5c-2.3-4.6-7-7.5-12.1-7.5s-9.8 2.9-12.1 7.6l-67.5 137.9-152 22.6c-5.1.8-9.3 4.3-10.9 9.2s-.2 10.3 3.5 13.8l110.3 106.9-25.5 151.4c-.9 5.1 1.2 10.2 5.4 13.2 2.3 1.7 5.1 2.6 7.9 2.6 2.2 0 4.3-.5 6.3-1.6l135.7-71.9 136.1 71.1c2 1 4.1 1.5 6.2 1.5 7.4 0 13.5-6.1 13.5-13.5 0-1.1-.1-2.1-.4-3.1l-26.3-150.5 109.6-107.5c3.9-3.6 5.2-9 3.6-13.9zm-137 107.1c-3.2 3.1-4.6 7.6-3.8 12l22.9 131.3-118.2-61.7c-3.9-2.1-8.6-2-12.6 0l-117.8 62.4 22.1-131.5c.7-4.4-.7-8.8-3.9-11.9l-95.6-92.8 131.9-19.6c4.4-.7 8.2-3.4 10.1-7.4l58.6-119.7 59.4 119.4c2 4 5.8 6.7 10.2 7.4l132 18.8-95.3 93.3z"></path>
  </symbol>
  <symbol xmlns="http://www.w3.org/2000/svg" viewBox="0 0 487.85 487.85" id="tag">
    <path d="M479 215.275l-83.5-113.9c-11-15-33.3-26.3-51.8-26.3H39.2c-21.6 0-39.2 17.6-39.2 39.2v259.3c0 21.6 17.6 39.2 39.2 39.2h304.5c18.6 0 40.9-11.3 51.8-26.3l83.5-113.9c11.8-16 11.8-41.2 0-57.3zm-21.8 41.5l-83.5 113.9c-5.8 8-20.2 15.2-30.1 15.2H39.2c-6.7 0-12.2-5.5-12.2-12.2v-259.4c0-6.7 5.5-12.2 12.2-12.2h304.5c9.9 0 24.2 7.3 30.1 15.2l83.5 113.9c4.8 6.7 4.8 18.9-.1 25.6z"></path>
  </symbol>
  <symbol xmlns="http://www.w3.org/2000/svg" viewBox="0 0 471.2 471.2" id="upload-1">
    <path d="M457.7 230.15c-7.5 0-13.5 6-13.5 13.5v122.8c0 33.4-27.2 60.5-60.5 60.5H87.5c-33.4 0-60.5-27.2-60.5-60.5v-124.8c0-7.5-6-13.5-13.5-13.5s-13.5 6-13.5 13.5v124.8c0 48.3 39.3 87.5 87.5 87.5h296.2c48.3 0 87.5-39.3 87.5-87.5v-122.8c0-7.4-6-13.5-13.5-13.5z"></path>
    <path d="M159.3 126.15l62.8-62.8v273.9c0 7.5 6 13.5 13.5 13.5s13.5-6 13.5-13.5V63.35l62.8 62.8c2.6 2.6 6.1 4 9.5 4 3.5 0 6.9-1.3 9.5-4 5.3-5.3 5.3-13.8 0-19.1l-85.8-85.8c-2.5-2.5-6-4-9.5-4-3.6 0-7 1.4-9.5 4l-85.8 85.8c-5.3 5.3-5.3 13.8 0 19.1 5.2 5.2 13.8 5.2 19 0z"></path>
  </symbol>
  <symbol xmlns="http://www.w3.org/2000/svg" viewBox="0 0 486.3 486.3" id="upload">
    <path d="M395.5 135.8c-5.2-30.9-20.5-59.1-43.9-80.5-26-23.8-59.8-36.9-95-36.9-27.2 0-53.7 7.8-76.4 22.5-18.9 12.2-34.6 28.7-45.7 48.1-4.8-.9-9.8-1.4-14.8-1.4-42.5 0-77.1 34.6-77.1 77.1 0 5.5.6 10.8 1.6 16C16.7 200.7 0 232.9 0 267.2c0 27.7 10.3 54.6 29.1 75.9 19.3 21.8 44.8 34.7 72 36.2h86.8c7.5 0 13.5-6 13.5-13.5s-6-13.5-13.5-13.5h-85.6C61.4 349.8 27 310.9 27 267.1c0-28.3 15.2-54.7 39.7-69 5.7-3.3 8.1-10.2 5.9-16.4-2-5.4-3-11.1-3-17.2 0-27.6 22.5-50.1 50.1-50.1 5.9 0 11.7 1 17.1 3 6.6 2.4 13.9-.6 16.9-6.9 18.7-39.7 59.1-65.3 103-65.3 59 0 107.7 44.2 113.3 102.8.6 6.1 5.2 11 11.2 12 44.5 7.6 78.1 48.7 78.1 95.6 0 49.7-39.1 92.9-87.3 96.6h-73.7c-7.5 0-13.5 6-13.5 13.5s6 13.5 13.5 13.5h75.2c30.5-2.2 59-16.2 80.2-39.6 21.1-23.2 32.6-53 32.6-84-.1-56.1-38.4-106-90.8-119.8z"></path>
    <path d="M324.2 280c5.3-5.3 5.3-13.8 0-19.1l-71.5-71.5c-2.5-2.5-6-4-9.5-4s-7 1.4-9.5 4l-71.5 71.5c-5.3 5.3-5.3 13.8 0 19.1 2.6 2.6 6.1 4 9.5 4s6.9-1.3 9.5-4l48.5-48.5v222.9c0 7.5 6 13.5 13.5 13.5s13.5-6 13.5-13.5V231.5l48.5 48.5c5.2 5.3 13.7 5.3 19 0z"></path>
  </symbol>
  <symbol xmlns="http://www.w3.org/2000/svg" viewBox="0 0 487.8 487.8" id="vector">
    <path d="M480.894 160.8l-24.3-24.3c-4.1-4.1-9.6-6.4-15.4-6.4s-11.3 2.3-15.4 6.4l-3.3 3.3c-32.1-21.4-69.4-32.7-108.5-32.8h-.4c-24.3 0-47.8 4.3-69.9 12.7l42.6-42.6c5.4 2.6 11.3 3.9 17.4 3.9 10.8 0 21-4.2 28.6-11.9 7.6-7.6 11.9-17.8 11.9-28.6s-4.2-21-11.9-28.6-17.8-11.9-28.6-11.9-21 4.2-28.6 11.9-11.9 17.8-11.9 28.6c0 6.1 1.4 12.1 3.9 17.4l-76.7 76.7-2.6-2.6c-4.1-4.1-9.6-6.4-15.4-6.4s-11.3 2.3-15.4 6.4l-24.6 24.5c-4.1 4.1-6.4 9.6-6.4 15.4s2.3 11.3 6.4 15.4l2.6 2.6-76.7 76.7c-5.4-2.6-11.3-3.9-17.4-3.9-10.8 0-21 4.2-28.6 11.9-15.8 15.8-15.8 41.5 0 57.2 7.6 7.6 17.8 11.9 28.6 11.9s21-4.2 28.6-11.9c12.4-12.4 15.1-31 7.9-46l42.6-42.6c-8.4 22.2-12.8 45.9-12.7 70.3.1 39.1 11.4 76.4 32.8 108.5l-4.1 4.1c-8.5 8.5-8.5 22.4 0 30.9l24.4 24.4c4.1 4.1 9.6 6.4 15.4 6.4 5.8 0 11.3-2.3 15.4-6.4l24.4-24.4c8.5-8.5 8.5-22.4 0-30.9l-24.4-24.4c-4.1-4.1-9.6-6.4-15.4-6.4-5.8 0-11.3 2.3-15.4 6.4l-.7.7c-35.1-56.9-33.6-130.5 4.7-185.9 2.5 1 5.1 1.5 7.9 1.5 5.8 0 11.3-2.3 15.4-6.4l24.4-24.4c6.3-6.3 7.9-15.5 4.9-23.3 55.4-38.3 129-39.9 185.9-4.7l-1.5 1.5c-8.5 8.5-8.5 22.4 0 30.9l24.4 24.4c4.1 4.1 9.6 6.4 15.4 6.4s11.3-2.3 15.4-6.4l24.4-24.4c8.5-8.4 8.5-22.2-.1-30.8zm-288.1 280.9l-17.1 17.1-17.1-17.1 17.1-17.1 17.1 17.1zm101.2-410.6c2.5-2.5 5.9-3.9 9.5-3.9s7 1.4 9.5 3.9 3.9 5.9 3.9 9.5-1.4 7-3.9 9.5-5.9 3.9-9.5 3.9-7-1.4-9.5-3.9-3.9-5.9-3.9-9.5 1.4-6.9 3.9-9.5zm-243.6 281.7c-2.5 2.5-5.9 3.9-9.5 3.9s-7-1.4-9.5-3.9c-5.3-5.3-5.3-13.8 0-19 2.5-2.5 5.9-3.9 9.5-3.9s7 1.4 9.5 3.9c5.3 5.2 5.3 13.8 0 19zm121.8-123.8l-17.1-17.1 17.1-17.1 8.5 8.5 8.5 8.5-17 17.2zm268.9 4.3l-17.1-17.1 17.1-17.1 17.1 17.1-17.1 17.1z"></path>
  </symbol>
</svg>